<?xml version="1.0" standalone="no"?>
<!DOCTYPE svg PUBLIC "-//W3C//DTD SVG 20010904//EN"
 "http://www.w3.org/TR/2001/REC-SVG-20010904/DTD/svg10.dtd">
<svg version="1.0" xmlns="http://www.w3.org/2000/svg"
 width="900.000000pt" height="900.000000pt" viewBox="0 0 900.000000 900.000000"
 preserveAspectRatio="xMidYMid meet">
<metadata>
Created by potrace 1.14, written by Peter Selinger 2001-2017
</metadata>
<g transform="translate(0.000000,900.000000) scale(0.100000,-0.100000)"
fill="#000000" stroke="none">
<path d="M1999 8133 c-2 -38 -11 -78 -20 -89 -5 -6 -7 -19 -3 -28 3 -9 -1 -27
-9 -40 -9 -13 -16 -32 -16 -42 0 -11 -4 -39 -11 -63 -6 -23 -15 -68 -20 -100
-5 -31 -14 -81 -20 -111 -7 -30 -12 -65 -13 -77 -1 -13 -3 -23 -7 -23 -3 0 -5
-12 -6 -27 0 -16 -4 -62 -8 -103 -25 -273 -26 -644 0 -845 2 -22 6 -60 9 -85
2 -25 6 -56 9 -69 3 -12 8 -43 11 -68 2 -24 7 -48 9 -51 2 -4 7 -23 10 -42 3
-19 8 -48 11 -65 8 -45 44 -210 65 -300 11 -44 22 -95 25 -114 3 -19 8 -37 10
-41 2 -3 6 -17 9 -31 2 -13 11 -54 20 -90 8 -37 17 -78 20 -90 2 -13 9 -36 15
-51 6 -16 8 -28 5 -28 -2 0 0 -8 5 -17 5 -10 12 -34 15 -54 3 -20 10 -48 15
-63 6 -14 9 -26 6 -26 -2 0 2 -19 11 -42 8 -22 13 -46 13 -52 -1 -6 0 -18 4
-26 5 -13 9 -29 23 -85 1 -5 12 -46 24 -90 29 -107 28 -122 -8 -191 -26 -49
-50 -101 -57 -124 -1 -3 -14 -32 -29 -65 -16 -33 -29 -66 -29 -72 0 -7 -5 -13
-10 -13 -6 0 -7 -3 -4 -6 4 -4 0 -19 -7 -33 -13 -23 -39 -88 -76 -188 -7 -18
-12 -35 -11 -38 1 -3 -5 -18 -13 -34 -9 -16 -12 -31 -9 -35 4 -3 0 -6 -7 -6
-7 0 -11 -3 -7 -6 3 -3 -1 -25 -10 -47 -8 -23 -16 -51 -18 -62 -2 -11 -15 -65
-29 -121 -14 -56 -29 -128 -33 -160 -8 -64 -8 -544 0 -609 5 -43 19 -191 22
-240 1 -16 5 -41 8 -55 3 -14 9 -63 12 -110 4 -46 10 -91 15 -100 4 -8 7 -32
5 -52 -2 -21 0 -40 6 -43 5 -4 9 -21 9 -39 0 -45 9 -50 38 -24 14 13 22 18 19
12 -4 -6 33 9 81 33 48 24 105 49 127 55 22 6 45 13 50 14 67 21 137 30 220
28 95 -1 213 -12 226 -20 3 -2 21 -6 40 -9 19 -3 50 -11 69 -17 19 -7 37 -13
40 -13 30 -8 124 -53 161 -77 14 -10 29 -15 33 -11 3 3 6 2 6 -4 0 -6 12 -16
28 -22 41 -17 121 -71 176 -121 62 -56 175 -180 176 -193 0 -9 15 -28 44 -57
11 -11 16 -20 10 -20 -5 0 -4 -4 2 -8 17 -11 90 -128 125 -202 32 -66 89 -209
89 -222 0 -4 5 -19 12 -35 12 -31 15 -39 22 -71 3 -12 8 -27 11 -33 4 -5 9
-20 11 -32 2 -12 12 -59 23 -104 10 -45 17 -84 15 -86 -3 -2 2 -10 11 -17 9
-8 15 -29 15 -56 0 -32 4 -44 15 -44 7 0 18 -6 22 -13 11 -17 79 -67 92 -67 6
0 11 -4 11 -10 0 -5 7 -10 16 -10 8 0 12 -4 9 -10 -3 -5 1 -10 9 -10 8 0 21
-6 28 -13 38 -37 241 -150 278 -155 3 0 18 -5 33 -11 16 -6 34 -11 42 -11 8 0
16 -4 19 -9 6 -9 63 -23 110 -26 31 -2 109 20 214 61 109 42 122 48 122 57 0
5 5 5 10 2 6 -3 10 -2 10 3 0 6 11 13 25 16 14 4 25 10 25 15 0 5 14 14 30 21
17 7 30 16 30 20 0 4 14 13 30 20 17 7 30 15 30 19 0 9 107 81 121 81 5 0 7 5
4 11 -4 6 2 13 13 16 20 5 29 26 39 88 2 17 13 66 25 110 11 44 20 88 21 97 1
10 4 18 7 18 3 0 6 8 7 18 2 19 62 211 71 227 4 6 7 15 8 20 1 6 14 36 28 68
14 31 26 59 26 62 1 8 108 178 131 207 11 15 20 30 19 34 -1 4 2 10 7 13 5 3
24 26 43 51 19 25 37 47 40 50 3 3 20 22 38 43 17 21 32 36 32 34 0 -3 17 12
38 32 47 45 64 58 127 99 127 82 297 159 390 177 258 50 444 37 622 -46 24
-10 46 -19 49 -19 3 0 18 -8 32 -19 15 -10 39 -21 55 -25 15 -3 27 -11 27 -16
0 -6 5 -10 10 -10 6 0 10 18 10 40 0 21 6 59 14 82 8 24 17 77 20 118 3 41 8
93 11 115 3 22 7 58 10 80 3 22 7 51 9 65 3 14 7 66 10 115 4 50 9 131 12 180
9 131 10 330 2 405 -4 36 -10 92 -13 124 -3 33 -10 67 -15 75 -4 9 -8 19 -8
24 0 19 -14 86 -27 127 -56 172 -118 357 -125 365 -4 6 -13 28 -20 50 -7 22
-16 45 -20 50 -4 6 -14 29 -23 52 -16 41 -38 92 -79 180 -11 24 -24 45 -29 49
-5 3 -7 9 -4 14 3 5 -1 21 -10 34 -11 16 -15 38 -12 58 4 33 74 320 85 348 7
20 15 51 37 150 0 3 4 14 8 25 3 11 8 31 11 45 2 14 12 54 21 90 9 36 17 74
19 85 1 11 5 26 10 33 4 7 5 16 2 19 -3 3 -1 11 4 18 5 6 10 26 12 43 1 18 5
32 8 32 3 0 6 8 6 18 1 18 6 42 23 112 7 25 13 52 15 60 3 14 18 90 22 115 1
6 3 12 4 15 1 3 3 12 5 20 1 8 8 40 14 70 6 30 13 66 16 80 3 14 7 36 10 50 3
14 8 41 10 60 3 19 7 53 11 75 3 22 7 62 9 89 2 27 7 81 11 120 10 91 10 548
0 646 -4 41 -9 95 -11 120 -5 59 -31 225 -35 225 -2 0 -5 15 -26 140 -9 55
-22 109 -29 121 -7 11 -11 33 -8 49 4 18 2 26 -4 22 -10 -7 -13 4 -28 101 -8
48 -16 52 -35 17 -7 -13 -16 -23 -20 -22 -8 3 -80 -73 -80 -84 0 -5 -4 -9 -8
-9 -4 0 -30 -20 -57 -45 -28 -25 -56 -45 -62 -45 -7 0 -13 -4 -13 -10 0 -5 -7
-10 -16 -10 -8 0 -12 -4 -9 -10 3 -5 1 -10 -5 -10 -6 0 -44 -22 -86 -50 -41
-27 -80 -50 -85 -50 -5 0 -9 -4 -9 -10 0 -5 -6 -10 -14 -10 -8 0 -16 -3 -18
-7 -1 -5 -41 -33 -87 -63 -46 -30 -90 -61 -98 -68 -7 -7 -13 -11 -13 -8 0 6
-89 -50 -116 -73 -7 -6 -15 -7 -18 -4 -3 4 -6 2 -6 -4 0 -6 -21 -24 -47 -39
-27 -15 -51 -32 -55 -38 -4 -6 -8 -7 -8 -2 0 5 -11 -3 -25 -18 -13 -14 -26
-25 -29 -24 -5 4 -134 -80 -160 -104 -11 -10 -28 -20 -38 -24 -10 -3 -18 -10
-18 -15 0 -5 -10 -9 -22 -9 -12 0 -18 -3 -15 -6 4 -4 -15 -20 -40 -36 -80 -51
-306 -224 -340 -259 -17 -19 -45 -49 -62 -67 -17 -18 -31 -35 -31 -38 0 -4
-22 -32 -50 -64 -27 -31 -47 -60 -43 -64 3 -3 1 -6 -5 -6 -5 0 -21 -17 -33
-37 -13 -21 -29 -44 -36 -51 -7 -8 -11 -18 -8 -23 4 -5 -1 -9 -9 -9 -8 0 -16
-6 -18 -13 -2 -7 -29 -53 -61 -102 -32 -50 -82 -126 -110 -170 -59 -90 -43
-85 -198 -71 -87 7 -332 9 -369 2 -14 -2 -51 -7 -82 -11 l-56 -6 -45 68 c-24
37 -68 106 -97 153 -29 47 -57 87 -61 88 -5 2 -9 9 -9 16 0 7 -11 25 -25 40
-14 15 -25 30 -25 33 0 3 -18 30 -40 59 -22 29 -40 56 -40 60 0 4 -8 14 -18
23 -10 9 -23 23 -28 32 -31 54 -220 249 -242 249 -4 0 -18 10 -32 23 -14 12
-35 29 -46 37 -12 8 -80 56 -150 105 -71 50 -137 93 -146 97 -10 4 -18 12 -18
18 0 5 -4 10 -10 10 -5 0 -45 25 -89 55 -44 30 -84 55 -89 55 -6 0 -12 4 -14
8 -3 8 -95 72 -104 72 -3 0 -14 9 -26 20 -12 11 -28 20 -35 20 -7 0 -13 4 -13
8 0 5 -12 14 -27 21 -15 7 -44 26 -65 42 -21 17 -38 27 -38 22 0 -4 -5 0 -11
10 -5 9 -14 17 -19 17 -5 0 -99 59 -207 132 -155 103 -219 153 -296 230 -54
54 -100 98 -103 98 -2 0 -4 -8 -5 -17z"/>
</g>
</svg>
